<svg width="357" height="294" viewBox="0 0 357 294" fill="none" xmlns="http://www.w3.org/2000/svg">
<path d="M78.9688 98H0.96875V85H78.9688C80.7969 85 82.3203 84.3906 83.5391 83.1719C84.8255 81.8854 85.4688 80.3281 85.4688 78.5C85.4688 76.6719 84.8255 75.1484 83.5391 73.9297C82.3203 72.6432 80.7969 72 78.9688 72H52.9688C47.5521 72 42.9479 70.1042 39.1562 66.3125C35.3646 62.5208 33.4688 57.9167 33.4688 52.5C33.4688 47.0833 35.3646 42.4792 39.1562 38.6875C42.9479 34.8958 47.5521 33 52.9688 33H91.9688V46H52.9688C51.1406 46 49.5833 46.6432 48.2969 47.9297C47.0781 49.1484 46.4688 50.6719 46.4688 52.5C46.4688 54.3281 47.0781 55.8854 48.2969 57.1719C49.5833 58.3906 51.1406 59 52.9688 59H78.9688C84.3854 59 88.9896 60.8958 92.7812 64.6875C96.5729 68.4792 98.4688 73.0833 98.4688 78.5C98.4688 83.9167 96.5729 88.5208 92.7812 92.3125C88.9896 96.1042 84.3854 98 78.9688 98ZM139.094 84.5938L128.43 65.5H141.43L148.945 79.1094C152.602 75.3177 154.43 70.7812 154.43 65.5C154.43 60.0833 152.534 55.4792 148.742 51.6875C144.951 47.8958 140.346 46 134.93 46C129.513 46 124.909 47.8958 121.117 51.6875C117.326 55.4792 115.43 60.0833 115.43 65.5C115.43 70.9167 117.326 75.5208 121.117 79.3125C124.909 83.1042 129.513 85 134.93 85C136.352 85 137.74 84.8646 139.094 84.5938ZM153.719 111L145.594 96.375C142.276 97.4583 138.721 98 134.93 98C125.924 98 118.24 94.8516 111.875 88.5547C105.578 82.1901 102.43 74.5052 102.43 65.5C102.43 56.4948 105.578 48.8438 111.875 42.5469C118.24 36.1823 125.924 33 134.93 33C143.935 33 151.586 36.1823 157.883 42.5469C164.247 48.8438 167.43 56.4948 167.43 65.5C167.43 74.5052 164.281 82.1562 157.984 88.4531C157.172 89.2656 156.326 90.0443 155.445 90.7891L166.719 111H153.719ZM174.234 65.5V33H187.234V65.5C187.234 70.9167 189.13 75.5208 192.922 79.3125C196.714 83.1042 201.318 85 206.734 85C212.151 85 216.755 83.1042 220.547 79.3125C224.339 75.5208 226.234 70.9167 226.234 65.5V0.5H239.234V65.5C239.234 74.5052 236.052 82.1901 229.688 88.5547C223.391 94.8516 215.74 98 206.734 98C197.729 98 190.044 94.8516 183.68 88.5547C177.383 82.1901 174.234 74.5052 174.234 65.5ZM263.609 98H250.609V33H263.609V98ZM323.531 98H278.031V33H323.531C332.536 33 340.188 36.1823 346.484 42.5469C352.849 48.8438 356.031 56.4948 356.031 65.5C356.031 74.5052 352.849 82.1901 346.484 88.5547C340.188 94.8516 332.536 98 323.531 98ZM291.031 85H323.531C328.948 85 333.552 83.1042 337.344 79.3125C341.135 75.5208 343.031 70.9167 343.031 65.5C343.031 60.0833 341.135 55.4792 337.344 51.6875C333.552 47.8958 328.948 46 323.531 46H291.031V85ZM81.6094 196L74.3984 183H33.9766C24.9714 183 17.2865 179.852 10.9219 173.555C4.625 167.19 1.47656 159.505 1.47656 150.5C1.47656 141.495 4.625 133.844 10.9219 127.547C17.2865 121.182 24.9714 118 33.9766 118H85.9766L79.4766 131H33.9766C28.5599 131 23.9557 132.896 20.1641 136.688C16.3724 140.479 14.4766 145.083 14.4766 150.5C14.4766 155.917 16.3724 160.521 20.1641 164.312C23.9557 168.104 28.5599 170 33.9766 170H67.1875L59.9766 157H33.9766V144H66.4766L94.8125 196H81.6094ZM90.8516 183L123.352 114.75L155.852 183H141.227L123.352 145.625L105.477 183H90.8516ZM172.102 144V183H159.102V118H172.102L198.102 166.75L224.102 118H237.102V183H224.102V144L204.602 183H191.602L172.102 144ZM355.523 157H280.773V144H355.523V157ZM316.523 118V131H264.523V170H316.523V183H251.523V118H316.523ZM29 203H43.625L61.5 240.375L79.375 203H94L61.5 271.25L29 203ZM122.031 268C113.026 268 105.341 264.852 98.9766 258.555C92.6797 252.19 89.5312 244.505 89.5312 235.5C89.5312 226.495 92.6797 218.844 98.9766 212.547C105.341 206.182 113.026 203 122.031 203C131.036 203 138.688 206.182 144.984 212.547C151.349 218.844 154.531 226.495 154.531 235.5C154.531 244.505 151.349 252.19 144.984 258.555C138.688 264.852 131.036 268 122.031 268ZM122.031 255C127.448 255 132.052 253.104 135.844 249.312C139.635 245.521 141.531 240.917 141.531 235.5C141.531 230.083 139.635 225.479 135.844 221.688C132.052 217.896 127.448 216 122.031 216C116.615 216 112.01 217.896 108.219 221.688C104.427 225.479 102.531 230.083 102.531 235.5C102.531 240.917 104.427 245.521 108.219 249.312C112.01 253.104 116.615 255 122.031 255ZM190.789 216V294H177.789V216H151.789V203H216.789V216H190.789ZM328 242H253.25V229H328V242ZM289 203V216H237V255H289V268H224V203H289Z" fill="#FFE0FF"/>
</svg>
