<svg width="391" height="274" viewBox="0 0 391 274" fill="none" xmlns="http://www.w3.org/2000/svg">
<path d="M155.234 40C155.234 17.9086 173.142 0 195.234 0C217.325 0 235.234 17.9086 235.234 40V206H155.234V40Z" fill="#CB375B"/>
<path d="M133.234 130C133.234 95.7583 160.992 68 195.234 68C229.475 68 257.234 95.7583 257.234 130V274H133.234V130Z" fill="#DD4C70"/>
<ellipse cx="195.234" cy="53" rx="35" ry="45" fill="#211819"/>
<ellipse cx="195.234" cy="41.5" rx="35" ry="33.5" fill="#201718"/>
<rect width="4" height="179" transform="matrix(-1 0 0 1 197.234 95)" fill="#211819"/>
<rect width="9" height="124" transform="matrix(1.19249e-08 -1 -1 -1.19249e-08 257.234 221)" fill="#332B29"/>
<rect x="180.734" y="26.5" width="28" height="28" stroke="#C2BABB" stroke-width="3"/>
<path d="M17.8247 84.4087C17.8247 66.5099 32.3346 52 50.2335 52C68.1323 52 82.6422 66.5099 82.6422 84.4088V218.905H17.8247V84.4087Z" fill="#CB375B"/>
<path d="M0 157.329C0 129.585 22.4904 107.095 50.2336 107.095C77.9768 107.095 100.467 129.585 100.467 157.329V274H0V157.329Z" fill="#DD4C70"/>
<ellipse cx="50.2336" cy="94.9415" rx="28.3577" ry="36.4599" fill="#211819"/>
<ellipse cx="50.2336" cy="85.624" rx="28.3577" ry="27.1423" fill="#201718"/>
<rect width="3.24088" height="145.029" transform="matrix(-1 0 0 1 51.854 128.971)" fill="#211819"/>
<rect width="7.29197" height="100.467" transform="matrix(1.19249e-08 -1 -1 -1.19249e-08 100.467 231.058)" fill="#332B29"/>
<path d="M37.1763 95.75L49.7336 74L62.291 95.75H37.1763Z" stroke="#C2BABB" stroke-width="3"/>
<path d="M308.059 84.4087C308.059 66.5099 322.568 52 340.467 52C358.366 52 372.876 66.5099 372.876 84.4088V218.905H308.059V84.4087Z" fill="#CB375B"/>
<path d="M290.234 157.329C290.234 129.585 312.724 107.095 340.467 107.095C368.21 107.095 390.701 129.585 390.701 157.329V274H290.234V157.329Z" fill="#DD4C70"/>
<ellipse cx="340.467" cy="94.9415" rx="28.3577" ry="36.4599" fill="#211819"/>
<ellipse cx="340.467" cy="85.624" rx="28.3577" ry="27.1423" fill="#201718"/>
<rect width="3.24088" height="145.029" transform="matrix(-1 0 0 1 342.088 128.971)" fill="#211819"/>
<rect width="7.29197" height="100.467" transform="matrix(1.19249e-08 -1 -1 -1.19249e-08 390.701 231.058)" fill="#332B29"/>
<path d="M327.41 95.75L339.967 74L352.525 95.75H327.41Z" stroke="#C2BABB" stroke-width="3"/>
</svg>
