
<svg width="415" height="295" viewBox="0 0 415 295" fill="none" xmlns="http://www.w3.org/2000/svg">
<path d="M168.234 40C168.234 17.9086 186.142 0 208.234 0C230.325 0 248.234 17.9086 248.234 40V206H168.234V40Z" fill="#CB375B"/>
<path d="M146.234 130C146.234 95.7583 173.992 68 208.234 68C242.475 68 270.234 95.7583 270.234 130V274H146.234V130Z" fill="#DD4C70"/>
<ellipse cx="208.234" cy="53" rx="35" ry="45" fill="#211819"/>
<ellipse cx="208.234" cy="41.5" rx="35" ry="33.5" fill="#201718"/>
<rect width="4" height="179" transform="matrix(-1 0 0 1 210.234 95)" fill="#211819"/>
<rect width="9" height="124" transform="matrix(1.19249e-08 -1 -1 -1.19249e-08 270.234 221)" fill="#332B29"/>
<rect x="193.734" y="26.5" width="28" height="28" stroke="#C2BABB" stroke-width="3"/>
<path d="M30.8247 84.4087C30.8247 66.5099 45.3346 52 63.2335 52C81.1323 52 95.6422 66.5099 95.6422 84.4088V218.905H30.8247V84.4087Z" fill="#CB375B"/>
<path d="M13 157.329C13 129.585 35.4904 107.095 63.2336 107.095C90.9768 107.095 113.467 129.585 113.467 157.329V274H13V157.329Z" fill="#DD4C70"/>
<ellipse cx="63.2336" cy="94.9415" rx="28.3577" ry="36.4599" fill="#211819"/>
<ellipse cx="63.2336" cy="85.624" rx="28.3577" ry="27.1423" fill="#201718"/>
<rect width="3.24088" height="145.029" transform="matrix(-1 0 0 1 64.854 128.971)" fill="#211819"/>
<rect width="7.29197" height="100.467" transform="matrix(1.19249e-08 -1 -1 -1.19249e-08 113.467 231.058)" fill="#332B29"/>
<path d="M50.1763 95.75L62.7336 74L75.291 95.75H50.1763Z" stroke="#C2BABB" stroke-width="3"/>
<path d="M321.059 84.4087C321.059 66.5099 335.568 52 353.467 52C371.366 52 385.876 66.5099 385.876 84.4088V218.905H321.059V84.4087Z" fill="#CB375B"/>
<path d="M303.234 157.329C303.234 129.585 325.724 107.095 353.467 107.095C381.21 107.095 403.701 129.585 403.701 157.329V274H303.234V157.329Z" fill="#DD4C70"/>
<ellipse cx="353.467" cy="94.9415" rx="28.3577" ry="36.4599" fill="#211819"/>
<ellipse cx="353.467" cy="85.624" rx="28.3577" ry="27.1423" fill="#201718"/>
<rect width="3.24088" height="145.029" transform="matrix(-1 0 0 1 355.088 128.971)" fill="#211819"/>
<rect width="7.29197" height="100.467" transform="matrix(1.19249e-08 -1 -1 -1.19249e-08 403.701 231.058)" fill="#332B29"/>
<path d="M340.41 95.75L352.967 74L365.525 95.75H340.41Z" stroke="#C2BABB" stroke-width="3"/>
<rect y="274" width="415" height="21" rx="10.5" fill="#272727"/>
</svg>
